<?xml version="1.0" standalone="no"?>
<!DOCTYPE svg PUBLIC "-//W3C//DTD SVG 20010904//EN"
 "http://www.w3.org/TR/2001/REC-SVG-20010904/DTD/svg10.dtd">
<svg version="1.0" xmlns="http://www.w3.org/2000/svg"
 width="1280.000000pt" height="1280.000000pt" viewBox="0 0 1280.000000 1280.000000"
 preserveAspectRatio="xMidYMid meet">
<metadata>
Created by potrace 1.15, written by Peter Selinger 2001-2017
</metadata>
<g transform="translate(0.000000,1280.000000) scale(0.100000,-0.100000)"
fill="#000000" stroke="none">
<path d="M6130 12394 c-301 -20 -471 -39 -715 -80 -976 -163 -2029 -630 -2795
-1238 -359 -285 -699 -634 -978 -1004 -479 -634 -865 -1445 -1062 -2231 -77
-307 -124 -582 -156 -911 -22 -217 -25 -805 -6 -1010 77 -812 268 -1488 627
-2215 316 -641 671 -1135 1156 -1610 444 -434 901 -753 1514 -1055 712 -351
1365 -538 2155 -616 217 -22 814 -25 1020 -5 793 75 1455 258 2156 596 1168
563 2017 1376 2621 2510 398 746 628 1508 710 2343 21 221 24 808 4 1012 -79
837 -282 1539 -657 2280 -601 1188 -1458 2032 -2649 2606 -707 341 -1397 537
-2135 609 -154 15 -684 27 -810 19z m718 -1329 c675 -69 1344 -289 1973 -651
336 -193 609 -402 895 -688 369 -369 610 -709 858 -1206 285 -574 433 -1085
498 -1725 18 -179 15 -656 -6 -848 -60 -572 -208 -1090 -460 -1612 -454 -941
-1120 -1621 -2051 -2095 -931 -474 -1925 -630 -2932 -460 -765 129 -1571 490
-2178 975 -362 289 -656 609 -910 990 -449 674 -717 1410 -801 2202 -21 192
-24 670 -5 848 77 766 299 1427 704 2098 503 832 1218 1433 2177 1830 489 202
992 321 1510 356 172 12 543 5 728 -14z"/>
<path d="M6130 10089 c-441 -40 -825 -150 -1211 -345 -353 -178 -638 -390
-929 -691 -604 -622 -974 -1449 -1050 -2349 -16 -186 -8 -656 14 -824 144
-1088 685 -2020 1526 -2624 472 -340 1041 -552 1624 -607 181 -17 572 -7 741
19 1002 154 1866 735 2428 1631 151 241 351 676 363 789 7 58 -24 123 -76 163
-23 18 -209 87 -560 209 -576 201 -589 204 -668 160 -53 -30 -63 -45 -118
-183 -168 -419 -464 -790 -812 -1019 -129 -85 -189 -118 -318 -173 -475 -203
-997 -191 -1469 34 -629 300 -1083 951 -1200 1721 -23 150 -30 441 -16 596 34
359 148 722 316 1010 626 1071 1883 1351 2815 625 175 -136 331 -309 476 -529
46 -69 96 -133 111 -144 44 -29 96 -40 142 -29 38 8 947 524 1019 578 44 33
72 91 72 151 0 39 -9 64 -51 137 -234 409 -653 859 -1048 1124 -494 332 -988
510 -1570 566 -162 16 -408 18 -551 4z"/>
</g>
</svg>
